<?xml version="1.0" encoding="utf-8"?>
<!-- Generator: Adobe Illustrator 22.1.0, SVG Export Plug-In . SVG Version: 6.00 Build 0)  -->
<svg version="1.1" xmlns="http://www.w3.org/2000/svg" xmlns:xlink="http://www.w3.org/1999/xlink" x="0px" y="0px"
	 viewBox="0 0 180 170" style="enable-background:new 0 0 180 170;" xml:space="preserve">
<style type="text/css">
	.st0{display:none;}
	.st1{display:inline;fill:none;stroke:#4C616D;stroke-width:5;stroke-miterlimit:10;}
	.st2{display:inline;fill:none;stroke:#F28B31;stroke-width:4;stroke-linecap:round;stroke-linejoin:round;stroke-miterlimit:10;}
	.st3{fill:#F28B31;}
	.st4{fill:#FFFFFF;}
	.st5{fill:#4E636E;}
</style>
<g id="Calque_1" class="st0">
	<path id="XMLID_239_" class="st1" d="M150.2,151.8H29.8c-3.3,0-6-2.7-6-6V25.3c0-3.3,2.7-6,6-6h120.5c3.3,0,6,2.7,6,6v120.5
		C156.3,149,153.5,151.8,150.2,151.8z"/>
	<circle id="XMLID_238_" class="st1" cx="35.8" cy="31.3" r="1.5"/>
	<circle id="XMLID_237_" class="st1" cx="47.8" cy="31.3" r="1.5"/>
	<circle id="XMLID_236_" class="st1" cx="59.9" cy="31.3" r="1.5"/>
	<line id="XMLID_235_" class="st1" x1="23.8" y1="43.3" x2="156.3" y2="43.3"/>
	<line id="XMLID_234_" class="st1" x1="53.9" y1="43.3" x2="53.9" y2="151.8"/>
	<line id="XMLID_233_" class="st1" x1="35.8" y1="61.4" x2="41.8" y2="61.4"/>
	<line id="XMLID_232_" class="st1" x1="35.8" y1="76.5" x2="41.8" y2="76.5"/>
	<line id="XMLID_231_" class="st1" x1="35.8" y1="91.5" x2="41.8" y2="91.5"/>
	<line id="XMLID_230_" class="st1" x1="35.8" y1="106.6" x2="41.8" y2="106.6"/>
	<line id="XMLID_229_" class="st1" x1="35.8" y1="121.6" x2="41.8" y2="121.6"/>
	<line id="XMLID_228_" class="st1" x1="35.8" y1="136.7" x2="41.8" y2="136.7"/>
	<rect id="XMLID_227_" x="68.9" y="61.4" class="st2" width="27.1" height="27.1"/>
	<rect id="XMLID_226_" x="114.1" y="61.4" class="st2" width="27.1" height="27.1"/>
	<rect id="XMLID_225_" x="68.9" y="106.6" class="st2" width="27.1" height="27.1"/>
	<rect id="XMLID_224_" x="114.1" y="106.6" class="st2" width="27.1" height="27.1"/>
</g>
<g id="Layer_2">
	<g>
		<g>
			<path class="st3" d="M42.2,68.1c-1,0-1.8-0.8-1.8-1.8V25.1c0-1,0.8-1.8,1.8-1.8c1,0,1.8,0.8,1.8,1.8v41.2
				C44,67.3,43.2,68.1,42.2,68.1z"/>
		</g>
		<g>
			<path class="st3" d="M111.7,49c-1,0-1.8-0.8-1.8-1.8V11.7c0-1,0.8-1.8,1.8-1.8c1,0,1.8,0.8,1.8,1.8v35.5
				C113.7,48.2,112.9,49,111.7,49z"/>
		</g>
		<g>
			<path class="st3" d="M146.6,86.5h-34.8c-1,0-1.8-0.8-1.8-1.8s0.8-1.8,1.8-1.8h33V33c0-1,0.8-1.8,1.8-1.8s1.8,0.8,1.8,1.8v51.7
				C148.5,85.7,147.7,86.5,146.6,86.5z"/>
		</g>
		<g>
			<path class="st4" d="M52.8,66.3c0,5.9-4.7,10.6-10.6,10.6c-5.9,0-10.6-4.7-10.6-10.6s4.7-10.6,10.6-10.6S52.8,60.5,52.8,66.3z"/>
			<path class="st3" d="M42.2,78.7c-6.8,0-12.4-5.6-12.4-12.4c0-6.8,5.6-12.4,12.4-12.4s12.4,5.6,12.4,12.4
				C54.6,73.1,49,78.7,42.2,78.7z M42.2,57.5c-4.9,0-8.8,3.9-8.8,8.8s3.9,8.8,8.8,8.8s8.8-3.9,8.8-8.8S46.9,57.5,42.2,57.5z"/>
		</g>
		<g>
			<path class="st3" d="M77,163.4c-1,0-1.8-0.8-1.8-1.8V9.5c0-1,0.8-1.8,1.8-1.8s1.8,0.8,1.8,1.8v152C78.9,162.6,78,163.4,77,163.4z
				"/>
		</g>
		<g>
			<path class="st4" d="M87.6,47.2c0,5.9-4.7,10.6-10.6,10.6s-10.6-4.7-10.6-10.6S71.2,36.6,77,36.6S87.6,41.4,87.6,47.2z"/>
			<path class="st3" d="M77,59.6c-6.8,0-12.4-5.6-12.4-12.4S70.2,34.8,77,34.8s12.4,5.6,12.4,12.4C89.4,54.1,83.9,59.6,77,59.6z
				 M77,38.4c-4.9,0-8.8,3.9-8.8,8.8S72.2,56,77,56s8.8-3.9,8.8-8.8C85.7,42.3,81.8,38.4,77,38.4z"/>
		</g>
		<g>
			<path class="st4" d="M122.5,47.2c0,5.9-4.7,10.6-10.6,10.6s-10.6-4.7-10.6-10.6s4.7-10.6,10.6-10.6S122.5,41.4,122.5,47.2z"/>
			<path class="st3" d="M111.7,59.6c-6.8,0-12.4-5.6-12.4-12.4s5.6-12.4,12.4-12.4c6.8,0,12.4,5.6,12.4,12.4
				C124.3,54.1,118.7,59.6,111.7,59.6z M111.7,38.4c-4.9,0-8.8,3.9-8.8,8.8s3.9,8.8,8.8,8.8c4.9,0,8.8-3.9,8.8-8.8
				S116.6,38.4,111.7,38.4z"/>
		</g>
		<g>
			<path class="st3" d="M111.7,161.5c-1,0-1.8-0.8-1.8-1.8v-35.8c0-1,0.8-1.8,1.8-1.8c1,0,2,0.7,2,1.8v35.8
				C113.7,160.6,112.9,161.5,111.7,161.5z"/>
		</g>
		<g>
			<path class="st4" d="M101.1,123.9c0-5.9,4.7-10.6,10.6-10.6c5.9,0,10.6,4.7,10.6,10.6s-4.7,10.6-10.6,10.6
				C105.9,134.4,101.1,129.7,101.1,123.9z"/>
			<path class="st3" d="M111.7,136.3c-6.8,0-12.4-5.6-12.4-12.4s5.6-12.4,12.4-12.4c6.8,0,12.4,5.6,12.4,12.4
				C124.3,130.7,118.7,136.3,111.7,136.3z M111.7,115.1c-4.9,0-8.8,3.9-8.8,8.8s3.9,8.8,8.8,8.8c4.9,0,8.8-3.9,8.8-8.8
				S116.6,115.1,111.7,115.1z"/>
		</g>
		<g>
			<path class="st4" d="M122.5,84.7c0,5.9-4.7,10.6-10.6,10.6s-10.6-4.7-10.6-10.6s4.7-10.6,10.6-10.6
				C117.7,74.1,122.5,78.9,122.5,84.7z"/>
			<path class="st3" d="M111.7,97.2c-6.8,0-12.4-5.6-12.4-12.4c0-6.8,5.6-12.4,12.4-12.4c6.8,0,12.4,5.6,12.4,12.4
				C124.3,91.7,118.7,97.2,111.7,97.2z M111.7,75.9c-4.9,0-8.8,3.9-8.8,8.8s3.9,8.8,8.8,8.8c4.9,0,8.8-3.9,8.8-8.8
				C120.5,79.8,116.6,75.9,111.7,75.9z"/>
		</g>
		<g>
			<path class="st3" d="M42.2,147.8c-1,0-1.8-0.8-1.8-1.8v-40c0-1,0.8-1.8,1.8-1.8c1,0,1.8,0.8,1.8,1.8v40
				C44,147,43.2,147.8,42.2,147.8z"/>
		</g>
		<g>
			<path class="st4" d="M31.6,105.9c0-5.9,4.7-10.6,10.6-10.6s10.6,4.7,10.6,10.6s-4.7,10.6-10.6,10.6S31.6,111.7,31.6,105.9z"/>
			<path class="st3" d="M42.2,118.4c-6.8,0-12.4-5.6-12.4-12.4c0-6.8,5.6-12.4,12.4-12.4s12.4,5.6,12.4,12.4
				C54.6,112.8,49,118.4,42.2,118.4z M42.2,97.2c-4.9,0-8.8,3.9-8.8,8.8c0,4.9,3.9,8.8,8.8,8.8s8.8-3.9,8.8-8.8
				C50.8,101.1,46.9,97.2,42.2,97.2z"/>
		</g>
		<g>
			<path class="st3" d="M146.6,139.6c-1,0-1.8-0.8-1.8-1.8v-31.9c0-1,0.8-1.8,1.8-1.8s1.8,0.8,1.8,1.8v31.9
				C148.5,138.8,147.7,139.6,146.6,139.6z"/>
		</g>
		<g>
			<path class="st4" d="M136,105.9c0-5.9,4.7-10.6,10.6-10.6s10.6,4.7,10.6,10.6s-4.7,10.6-10.6,10.6S136,111.7,136,105.9z"/>
			<path class="st3" d="M146.6,118.4c-6.8,0-12.4-5.6-12.4-12.4c0-6.8,5.6-12.4,12.4-12.4c6.8,0,12.4,5.6,12.4,12.4
				C159.1,112.8,153.5,118.4,146.6,118.4z M146.6,97.2c-4.9,0-8.8,3.9-8.8,8.8c0,4.9,3.9,8.8,8.8,8.8s8.8-3.9,8.8-8.8
				C155.3,101.1,151.4,97.2,146.6,97.2z"/>
		</g>
		<g>
			<path class="st5" d="M90,164.4c-43.6,0-79-35.4-79-79s35.4-79,79-79s79,35.4,79,79S133.5,164.4,90,164.4z M90,10.3
				c-41.5,0-75.2,33.7-75.2,75.2s33.7,75.2,75.2,75.2s75.2-33.7,75.2-75.2S131.5,10.3,90,10.3z"/>
		</g>
	</g>
</g>
</svg>
